<?xml version="1.0" encoding="iso-8859-1"?>
<!-- Generator: Adobe Illustrator 19.0.0, SVG Export Plug-In . SVG Version: 6.00 Build 0)  -->
<svg version="1.1" id="Capa_1" xmlns="http://www.w3.org/2000/svg" xmlns:xlink="http://www.w3.org/1999/xlink" x="0px" y="0px"
	 viewBox="0 0 496 496" style="enable-background:new 0 0 496 496;" xml:space="preserve">
<path style="fill:#656D78;" d="M120,364c26.488,0,48,21.512,48,48c0,26.56-21.512,48-48,48c-26.56,0-48-21.44-48-48
	C72,385.512,93.44,364,120,364z M136,412c0-8.8-7.192-16-16-16c-8.88,0-16,7.2-16,16c0,8.872,7.12,16,16,16
	C128.808,428,136,420.872,136,412z"/>
<g>
	<path style="fill:#CCD1D9;" d="M120,396c8.808,0,16,7.2,16,16c0,8.872-7.192,16-16,16c-8.88,0-16-7.128-16-16
		C104,403.2,111.12,396,120,396z"/>
	<path style="fill:#CCD1D9;" d="M384,396c8.808,0,16,7.2,16,16c0,8.872-7.192,16-16,16c-8.88,0-16-7.128-16-16
		C368,403.2,375.12,396,384,396z"/>
</g>
<path style="fill:#656D78;" d="M336,412c0-26.488,21.44-48,48-48c26.488,0,48,21.512,48,48c0,26.56-21.512,48-48,48
	C357.44,460,336,438.56,336,412z M400,412c0-8.8-7.192-16-16-16c-8.88,0-16,7.2-16,16c0,8.872,7.12,16,16,16
	C392.808,428,400,420.872,400,412z"/>
<path style="fill:#5D9CEC;" d="M440,180l48,104h-96c-17.76,0-32-14.32-32-32v-72H440z"/>
<path style="fill:#A0D468;" d="M16,276h96h96h112v-96h40v72c0,17.68,14.24,32,32,32h96v56v40h8v32h-64c0-26.488-21.512-48-48-48
	c-26.56,0-48,21.512-48,48H168c0-26.488-21.512-48-48-48c-26.56,0-48,21.512-48,48l-56,0.16V380H0V276H16z"/>
<polygon style="fill:#8CC152;" points="488,380 488,340 488,284 456,284 456,412 496,412 496,380 "/>
<polygon style="fill:#4A89DC;" points="488,284 440,180 408,180 456,284 "/>
<g>
	<rect x="48" y="156" style="fill:#ED5565;" width="32" height="24"/>
	<rect x="248" y="36" style="fill:#ED5565;" width="32" height="40"/>
</g>
<polygon style="fill:#FFD2A6;" points="320,180 320,276 208,276 208,196 208,100 208,36 248,36 248,76 280,76 280,36 320,36 "/>
<polygon style="fill:#F7C292;" points="160,100 208,100 208,196 160,196 112,196 112,156 112,100 "/>
<polygon style="fill:#EAB081;" points="160,196 208,196 208,276 112,276 112,196 "/>
<polygon style="fill:#FFD2A6;" points="48,156 48,180 80,180 80,156 112,156 112,196 112,276 16,276 16,156 "/>
<path style="fill:#E6E9ED;" d="M480,348h8v-8v-8h-8c-4.424,0-8,3.576-8,8S475.576,348,480,348z"/>
<g>
	<path style="fill:#ED5565;" d="M152,100v16c0,4.424,3.576,8,8,8s8-3.576,8-8v-16H152z"/>
	<path style="fill:#ED5565;" d="M152,220c0,4.424,3.576,8,8,8s8-3.576,8-8v-24h-16V220z"/>
</g>
<g>
</g>
<g>
</g>
<g>
</g>
<g>
</g>
<g>
</g>
<g>
</g>
<g>
</g>
<g>
</g>
<g>
</g>
<g>
</g>
<g>
</g>
<g>
</g>
<g>
</g>
<g>
</g>
<g>
</g>
</svg>
